<svg width="1121" height="423" viewBox="0 0 1121 423" fill="none" xmlns="http://www.w3.org/2000/svg">
<path d="M75.25 421.573L201.652 234.036L278.25 299.073L352.25 134.573L425.25 238.573L549.25 29.0732" stroke="#02194A" stroke-width="3"/>
<path d="M624.25 26.5732L724.25 209.573L773.25 128.073L873.25 274.573L922.25 196.573L1045.75 340.073" stroke="#02194A" stroke-width="3"/>
<path d="M124.396 32.0632C121.666 32.0632 119.426 31.2932 117.676 29.7532C115.926 28.2132 115.051 26.1482 115.051 23.5582V7.07324H119.846V23.1732C119.846 24.4566 120.208 25.4716 120.931 26.2182C121.678 26.9649 122.833 27.3382 124.396 27.3382C125.96 27.3382 127.103 26.9649 127.826 26.2182C128.573 25.4716 128.946 24.4566 128.946 23.1732V7.07324H133.776V23.5582C133.776 26.1482 132.901 28.2132 131.151 29.7532C129.401 31.2932 127.15 32.0632 124.396 32.0632ZM147.263 7.07324C149.619 7.07324 151.603 7.86657 153.213 9.45324C154.823 11.0399 155.628 12.9882 155.628 15.2982C155.628 17.6082 154.823 19.5566 153.213 21.1432C151.603 22.7299 149.619 23.5232 147.263 23.5232H142.958V31.5732H138.128V7.07324H147.263ZM147.263 19.0082C148.289 19.0082 149.141 18.6582 149.818 17.9582C150.494 17.2349 150.833 16.3482 150.833 15.2982C150.833 14.2249 150.494 13.3382 149.818 12.6382C149.141 11.9382 148.289 11.5882 147.263 11.5882H142.958V19.0082H147.263ZM174.533 7.07324V11.6932H167.918V31.5732H163.088V11.6932H156.508V7.07324H174.533ZM190.669 31.5732L185.734 23.0682H182.059V31.5732H177.229V7.07324H187.029C189.292 7.07324 191.217 7.86657 192.804 9.45324C194.391 11.0399 195.184 12.9532 195.184 15.1932C195.184 16.7099 194.752 18.1216 193.889 19.4282C193.026 20.7116 191.882 21.6799 190.459 22.3332L195.884 31.5732H190.669ZM182.059 11.5882V18.8332H187.029C187.939 18.8332 188.721 18.4832 189.374 17.7832C190.027 17.0599 190.354 16.1966 190.354 15.1932C190.354 14.1899 190.027 13.3382 189.374 12.6382C188.721 11.9382 187.939 11.5882 187.029 11.5882H182.059ZM203.558 26.9532H213.883V31.5732H198.728V7.07324H213.708V11.6932H203.558V16.9082H212.833V21.4582H203.558V26.9532ZM231.463 7.07324H236.293V31.5732H232.618L222.118 16.5932V31.5732H217.288V7.07324H220.963L231.463 22.0182V7.07324ZM250.568 7.07324C253.928 7.07324 256.728 8.25157 258.968 10.6082C261.231 12.9649 262.363 15.8699 262.363 19.3232C262.363 22.7766 261.231 25.6816 258.968 28.0382C256.728 30.3949 253.928 31.5732 250.568 31.5732H240.838V7.07324H250.568ZM250.568 26.9532C252.691 26.9532 254.418 26.2532 255.748 24.8532C257.078 23.4299 257.743 21.5866 257.743 19.3232C257.743 17.0599 257.078 15.2282 255.748 13.8282C254.418 12.4049 252.691 11.6932 250.568 11.6932H245.668V26.9532H250.568Z" fill="#02194A"/>
<path d="M822.478 10.0732C825.838 10.0732 828.638 11.2516 830.878 13.6082C833.141 15.9649 834.273 18.8699 834.273 22.3232C834.273 25.7766 833.141 28.6816 830.878 31.0382C828.638 33.3949 825.838 34.5732 822.478 34.5732H812.748V10.0732H822.478ZM822.478 29.9532C824.601 29.9532 826.328 29.2532 827.658 27.8532C828.988 26.4299 829.653 24.5866 829.653 22.3232C829.653 20.0599 828.988 18.2282 827.658 16.8282C826.328 15.4049 824.601 14.6932 822.478 14.6932H817.578V29.9532H822.478ZM858.314 31.3882C855.841 33.8382 852.831 35.0632 849.284 35.0632C845.738 35.0632 842.728 33.8382 840.254 31.3882C837.804 28.9149 836.579 25.8932 836.579 22.3232C836.579 18.7532 837.804 15.7432 840.254 13.2932C842.728 10.8199 845.738 9.58324 849.284 9.58324C852.831 9.58324 855.841 10.8199 858.314 13.2932C860.788 15.7432 862.024 18.7532 862.024 22.3232C862.024 25.8932 860.788 28.9149 858.314 31.3882ZM843.649 28.0982C845.166 29.5916 847.044 30.3382 849.284 30.3382C851.524 30.3382 853.403 29.5916 854.919 28.0982C856.436 26.5816 857.194 24.6566 857.194 22.3232C857.194 19.9899 856.436 18.0649 854.919 16.5482C853.403 15.0316 851.524 14.2732 849.284 14.2732C847.044 14.2732 845.166 15.0316 843.649 16.5482C842.133 18.0649 841.374 19.9899 841.374 22.3232C841.374 24.6566 842.133 26.5816 843.649 28.0982ZM869.435 34.5732L862.575 10.0732H867.65L872.34 28.2382L877.45 10.0732H881.58L886.725 28.2382L891.415 10.0732H896.49L889.63 34.5732H884.135L879.515 18.4032L874.93 34.5732H869.435ZM913.466 10.0732H918.296V34.5732H914.621L904.121 19.5932V34.5732H899.291V10.0732H902.966L913.466 25.0182V10.0732ZM939.046 10.0732V14.6932H932.431V34.5732H927.601V14.6932H921.021V10.0732H939.046ZM955.182 34.5732L950.247 26.0682H946.572V34.5732H941.742V10.0732H951.542C953.806 10.0732 955.731 10.8666 957.317 12.4532C958.904 14.0399 959.697 15.9532 959.697 18.1932C959.697 19.7099 959.266 21.1216 958.402 22.4282C957.539 23.7116 956.396 24.6799 954.972 25.3332L960.397 34.5732H955.182ZM946.572 14.5882V21.8332H951.542C952.452 21.8332 953.234 21.4832 953.887 20.7832C954.541 20.0599 954.867 19.1966 954.867 18.1932C954.867 17.1899 954.541 16.3382 953.887 15.6382C953.234 14.9382 952.452 14.5882 951.542 14.5882H946.572ZM968.071 29.9532H978.396V34.5732H963.241V10.0732H978.221V14.6932H968.071V19.9082H977.346V24.4582H968.071V29.9532ZM995.976 10.0732H1000.81V34.5732H997.131L986.631 19.5932V34.5732H981.801V10.0732H985.476L995.976 25.0182V10.0732ZM1015.08 10.0732C1018.44 10.0732 1021.24 11.2516 1023.48 13.6082C1025.74 15.9649 1026.88 18.8699 1026.88 22.3232C1026.88 25.7766 1025.74 28.6816 1023.48 31.0382C1021.24 33.3949 1018.44 34.5732 1015.08 34.5732H1005.35V10.0732H1015.08ZM1015.08 29.9532C1017.2 29.9532 1018.93 29.2532 1020.26 27.8532C1021.59 26.4299 1022.26 24.5866 1022.26 22.3232C1022.26 20.0599 1021.59 18.2282 1020.26 16.8282C1018.93 15.4049 1017.2 14.6932 1015.08 14.6932H1010.18V29.9532H1015.08Z" fill="#02194A"/>
<path d="M158.548 222.699C157.672 222.699 156.88 222.549 156.172 222.249C155.476 221.949 154.924 221.517 154.516 220.953C154.108 220.389 153.898 219.723 153.886 218.955H156.586C156.622 219.471 156.802 219.879 157.126 220.179C157.462 220.479 157.918 220.629 158.494 220.629C159.082 220.629 159.544 220.491 159.88 220.215C160.216 219.927 160.384 219.555 160.384 219.099C160.384 218.727 160.27 218.421 160.042 218.181C159.814 217.941 159.526 217.755 159.178 217.623C158.842 217.479 158.374 217.323 157.774 217.155C156.958 216.915 156.292 216.681 155.776 216.453C155.272 216.213 154.834 215.859 154.462 215.391C154.102 214.911 153.922 214.275 153.922 213.483C153.922 212.739 154.108 212.091 154.48 211.539C154.852 210.987 155.374 210.567 156.046 210.279C156.718 209.979 157.486 209.829 158.35 209.829C159.646 209.829 160.696 210.147 161.5 210.783C162.316 211.407 162.766 212.283 162.85 213.411H160.078C160.054 212.979 159.868 212.625 159.52 212.349C159.184 212.061 158.734 211.917 158.17 211.917C157.678 211.917 157.282 212.043 156.982 212.295C156.694 212.547 156.55 212.913 156.55 213.393C156.55 213.729 156.658 214.011 156.874 214.239C157.102 214.455 157.378 214.635 157.702 214.779C158.038 214.911 158.506 215.067 159.106 215.247C159.922 215.487 160.588 215.727 161.104 215.967C161.62 216.207 162.064 216.567 162.436 217.047C162.808 217.527 162.994 218.157 162.994 218.937C162.994 219.609 162.82 220.233 162.472 220.809C162.124 221.385 161.614 221.847 160.942 222.195C160.27 222.531 159.472 222.699 158.548 222.699ZM179.003 212.601L176.087 222.573H173.369L171.551 215.607L169.733 222.573H166.997L164.063 212.601H166.619L168.383 220.197L170.291 212.601H172.955L174.827 220.179L176.591 212.601H179.003ZM181.644 211.413C181.2 211.413 180.828 211.275 180.528 210.999C180.24 210.711 180.096 210.357 180.096 209.937C180.096 209.517 180.24 209.169 180.528 208.893C180.828 208.605 181.2 208.461 181.644 208.461C182.088 208.461 182.454 208.605 182.742 208.893C183.042 209.169 183.192 209.517 183.192 209.937C183.192 210.357 183.042 210.711 182.742 210.999C182.454 211.275 182.088 211.413 181.644 211.413ZM182.886 212.601V222.573H180.366V212.601H182.886ZM190.902 212.457C192.09 212.457 193.05 212.835 193.782 213.591C194.514 214.335 194.88 215.379 194.88 216.723V222.573H192.36V217.065C192.36 216.273 192.162 215.667 191.766 215.247C191.37 214.815 190.83 214.599 190.146 214.599C189.45 214.599 188.898 214.815 188.49 215.247C188.094 215.667 187.896 216.273 187.896 217.065V222.573H185.376V212.601H187.896V213.843C188.232 213.411 188.658 213.075 189.174 212.835C189.702 212.583 190.278 212.457 190.902 212.457ZM201.182 212.439C201.926 212.439 202.58 212.589 203.144 212.889C203.708 213.177 204.152 213.555 204.476 214.023V212.601H207.014V222.645C207.014 223.569 206.828 224.391 206.456 225.111C206.084 225.843 205.526 226.419 204.782 226.839C204.038 227.271 203.138 227.487 202.082 227.487C200.666 227.487 199.502 227.157 198.59 226.497C197.69 225.837 197.18 224.937 197.06 223.797H199.562C199.694 224.253 199.976 224.613 200.408 224.877C200.852 225.153 201.386 225.291 202.01 225.291C202.742 225.291 203.336 225.069 203.792 224.625C204.248 224.193 204.476 223.533 204.476 222.645V221.097C204.152 221.565 203.702 221.955 203.126 222.267C202.562 222.579 201.914 222.735 201.182 222.735C200.342 222.735 199.574 222.519 198.878 222.087C198.182 221.655 197.63 221.049 197.222 220.269C196.826 219.477 196.628 218.571 196.628 217.551C196.628 216.543 196.826 215.649 197.222 214.869C197.63 214.089 198.176 213.489 198.86 213.069C199.556 212.649 200.33 212.439 201.182 212.439ZM204.476 217.587C204.476 216.975 204.356 216.453 204.116 216.021C203.876 215.577 203.552 215.241 203.144 215.013C202.736 214.773 202.298 214.653 201.83 214.653C201.362 214.653 200.93 214.767 200.534 214.995C200.138 215.223 199.814 215.559 199.562 216.003C199.322 216.435 199.202 216.951 199.202 217.551C199.202 218.151 199.322 218.679 199.562 219.135C199.814 219.579 200.138 219.921 200.534 220.161C200.942 220.401 201.374 220.521 201.83 220.521C202.298 220.521 202.736 220.407 203.144 220.179C203.552 219.939 203.876 219.603 204.116 219.171C204.356 218.727 204.476 218.199 204.476 217.587ZM219.38 212.457C220.136 212.457 220.808 212.625 221.396 212.961C221.984 213.285 222.44 213.771 222.764 214.419C223.1 215.055 223.268 215.823 223.268 216.723V222.573H220.748V217.065C220.748 216.273 220.55 215.667 220.154 215.247C219.758 214.815 219.218 214.599 218.534 214.599C217.838 214.599 217.286 214.815 216.878 215.247C216.482 215.667 216.284 216.273 216.284 217.065V222.573H213.764V209.253H216.284V213.843C216.608 213.411 217.04 213.075 217.58 212.835C218.12 212.583 218.72 212.457 219.38 212.457ZM226.943 211.413C226.499 211.413 226.127 211.275 225.827 210.999C225.539 210.711 225.395 210.357 225.395 209.937C225.395 209.517 225.539 209.169 225.827 208.893C226.127 208.605 226.499 208.461 226.943 208.461C227.387 208.461 227.753 208.605 228.041 208.893C228.341 209.169 228.491 209.517 228.491 209.937C228.491 210.357 228.341 210.711 228.041 210.999C227.753 211.275 227.387 211.413 226.943 211.413ZM228.185 212.601V222.573H225.665V212.601H228.185ZM234.581 212.439C235.325 212.439 235.979 212.589 236.543 212.889C237.107 213.177 237.551 213.555 237.875 214.023V212.601H240.413V222.645C240.413 223.569 240.227 224.391 239.855 225.111C239.483 225.843 238.925 226.419 238.181 226.839C237.437 227.271 236.537 227.487 235.481 227.487C234.065 227.487 232.901 227.157 231.989 226.497C231.089 225.837 230.579 224.937 230.459 223.797H232.961C233.093 224.253 233.375 224.613 233.807 224.877C234.251 225.153 234.785 225.291 235.409 225.291C236.141 225.291 236.735 225.069 237.191 224.625C237.647 224.193 237.875 223.533 237.875 222.645V221.097C237.551 221.565 237.101 221.955 236.525 222.267C235.961 222.579 235.313 222.735 234.581 222.735C233.741 222.735 232.973 222.519 232.277 222.087C231.581 221.655 231.029 221.049 230.621 220.269C230.225 219.477 230.027 218.571 230.027 217.551C230.027 216.543 230.225 215.649 230.621 214.869C231.029 214.089 231.575 213.489 232.259 213.069C232.955 212.649 233.729 212.439 234.581 212.439ZM237.875 217.587C237.875 216.975 237.755 216.453 237.515 216.021C237.275 215.577 236.951 215.241 236.543 215.013C236.135 214.773 235.697 214.653 235.229 214.653C234.761 214.653 234.329 214.767 233.933 214.995C233.537 215.223 233.213 215.559 232.961 216.003C232.721 216.435 232.601 216.951 232.601 217.551C232.601 218.151 232.721 218.679 232.961 219.135C233.213 219.579 233.537 219.921 233.933 220.161C234.341 220.401 234.773 220.521 235.229 220.521C235.697 220.521 236.135 220.407 236.543 220.179C236.951 219.939 237.275 219.603 237.515 219.171C237.755 218.727 237.875 218.199 237.875 217.587ZM248.49 212.457C249.246 212.457 249.918 212.625 250.506 212.961C251.094 213.285 251.55 213.771 251.874 214.419C252.21 215.055 252.378 215.823 252.378 216.723V222.573H249.858V217.065C249.858 216.273 249.66 215.667 249.264 215.247C248.868 214.815 248.328 214.599 247.644 214.599C246.948 214.599 246.396 214.815 245.988 215.247C245.592 215.667 245.394 216.273 245.394 217.065V222.573H242.874V209.253H245.394V213.843C245.718 213.411 246.15 213.075 246.69 212.835C247.23 212.583 247.83 212.457 248.49 212.457Z" fill="#02194A"/>
<path d="M233.589 314.699C232.713 314.699 231.921 314.549 231.213 314.249C230.517 313.949 229.965 313.517 229.557 312.953C229.149 312.389 228.939 311.723 228.927 310.955H231.627C231.663 311.471 231.843 311.879 232.167 312.179C232.503 312.479 232.959 312.629 233.535 312.629C234.123 312.629 234.585 312.491 234.921 312.215C235.257 311.927 235.425 311.555 235.425 311.099C235.425 310.727 235.311 310.421 235.083 310.181C234.855 309.941 234.567 309.755 234.219 309.623C233.883 309.479 233.415 309.323 232.815 309.155C231.999 308.915 231.333 308.681 230.817 308.453C230.313 308.213 229.875 307.859 229.503 307.391C229.143 306.911 228.963 306.275 228.963 305.483C228.963 304.739 229.149 304.091 229.521 303.539C229.893 302.987 230.415 302.567 231.087 302.279C231.759 301.979 232.527 301.829 233.391 301.829C234.687 301.829 235.737 302.147 236.541 302.783C237.357 303.407 237.807 304.283 237.891 305.411H235.119C235.095 304.979 234.909 304.625 234.561 304.349C234.225 304.061 233.775 303.917 233.211 303.917C232.719 303.917 232.323 304.043 232.023 304.295C231.735 304.547 231.591 304.913 231.591 305.393C231.591 305.729 231.699 306.011 231.915 306.239C232.143 306.455 232.419 306.635 232.743 306.779C233.079 306.911 233.547 307.067 234.147 307.247C234.963 307.487 235.629 307.727 236.145 307.967C236.661 308.207 237.105 308.567 237.477 309.047C237.849 309.527 238.035 310.157 238.035 310.937C238.035 311.609 237.861 312.233 237.513 312.809C237.165 313.385 236.655 313.847 235.983 314.195C235.311 314.531 234.513 314.699 233.589 314.699ZM254.044 304.601L251.128 314.573H248.41L246.592 307.607L244.774 314.573H242.038L239.104 304.601H241.66L243.424 312.197L245.332 304.601H247.996L249.868 312.179L251.632 304.601H254.044ZM256.685 303.413C256.241 303.413 255.869 303.275 255.569 302.999C255.281 302.711 255.137 302.357 255.137 301.937C255.137 301.517 255.281 301.169 255.569 300.893C255.869 300.605 256.241 300.461 256.685 300.461C257.129 300.461 257.495 300.605 257.783 300.893C258.083 301.169 258.233 301.517 258.233 301.937C258.233 302.357 258.083 302.711 257.783 302.999C257.495 303.275 257.129 303.413 256.685 303.413ZM257.927 304.601V314.573H255.407V304.601H257.927ZM265.943 304.457C267.131 304.457 268.091 304.835 268.823 305.591C269.555 306.335 269.921 307.379 269.921 308.723V314.573H267.401V309.065C267.401 308.273 267.203 307.667 266.807 307.247C266.411 306.815 265.871 306.599 265.187 306.599C264.491 306.599 263.939 306.815 263.531 307.247C263.135 307.667 262.937 308.273 262.937 309.065V314.573H260.417V304.601H262.937V305.843C263.273 305.411 263.699 305.075 264.215 304.835C264.743 304.583 265.319 304.457 265.943 304.457ZM276.223 304.439C276.967 304.439 277.621 304.589 278.185 304.889C278.749 305.177 279.193 305.555 279.517 306.023V304.601H282.055V314.645C282.055 315.569 281.869 316.391 281.497 317.111C281.125 317.843 280.567 318.419 279.823 318.839C279.079 319.271 278.179 319.487 277.123 319.487C275.707 319.487 274.543 319.157 273.631 318.497C272.731 317.837 272.221 316.937 272.101 315.797H274.603C274.735 316.253 275.017 316.613 275.449 316.877C275.893 317.153 276.427 317.291 277.051 317.291C277.783 317.291 278.377 317.069 278.833 316.625C279.289 316.193 279.517 315.533 279.517 314.645V313.097C279.193 313.565 278.743 313.955 278.167 314.267C277.603 314.579 276.955 314.735 276.223 314.735C275.383 314.735 274.615 314.519 273.919 314.087C273.223 313.655 272.671 313.049 272.263 312.269C271.867 311.477 271.669 310.571 271.669 309.551C271.669 308.543 271.867 307.649 272.263 306.869C272.671 306.089 273.217 305.489 273.901 305.069C274.597 304.649 275.371 304.439 276.223 304.439ZM279.517 309.587C279.517 308.975 279.397 308.453 279.157 308.021C278.917 307.577 278.593 307.241 278.185 307.013C277.777 306.773 277.339 306.653 276.871 306.653C276.403 306.653 275.971 306.767 275.575 306.995C275.179 307.223 274.855 307.559 274.603 308.003C274.363 308.435 274.243 308.951 274.243 309.551C274.243 310.151 274.363 310.679 274.603 311.135C274.855 311.579 275.179 311.921 275.575 312.161C275.983 312.401 276.415 312.521 276.871 312.521C277.339 312.521 277.777 312.407 278.185 312.179C278.593 311.939 278.917 311.603 279.157 311.171C279.397 310.727 279.517 310.199 279.517 309.587ZM291.325 312.575H295.465V314.573H288.805V302.009H291.325V312.575ZM301.495 314.735C300.535 314.735 299.671 314.525 298.903 314.105C298.135 313.673 297.529 313.067 297.085 312.287C296.653 311.507 296.437 310.607 296.437 309.587C296.437 308.567 296.659 307.667 297.103 306.887C297.559 306.107 298.177 305.507 298.957 305.087C299.737 304.655 300.607 304.439 301.567 304.439C302.527 304.439 303.397 304.655 304.177 305.087C304.957 305.507 305.569 306.107 306.013 306.887C306.469 307.667 306.697 308.567 306.697 309.587C306.697 310.607 306.463 311.507 305.995 312.287C305.539 313.067 304.915 313.673 304.123 314.105C303.343 314.525 302.467 314.735 301.495 314.735ZM301.495 312.539C301.951 312.539 302.377 312.431 302.773 312.215C303.181 311.987 303.505 311.651 303.745 311.207C303.985 310.763 304.105 310.223 304.105 309.587C304.105 308.639 303.853 307.913 303.349 307.409C302.857 306.893 302.251 306.635 301.531 306.635C300.811 306.635 300.205 306.893 299.713 307.409C299.233 307.913 298.993 308.639 298.993 309.587C298.993 310.535 299.227 311.267 299.695 311.783C300.175 312.287 300.775 312.539 301.495 312.539ZM322.37 304.601L319.454 314.573H316.736L314.918 307.607L313.1 314.573H310.364L307.43 304.601H309.986L311.75 312.197L313.658 304.601H316.322L318.194 312.179L319.958 304.601H322.37Z" fill="#02194A"/>
<path d="M380.589 256.699C379.713 256.699 378.921 256.549 378.213 256.249C377.517 255.949 376.965 255.517 376.557 254.953C376.149 254.389 375.939 253.723 375.927 252.955H378.627C378.663 253.471 378.843 253.879 379.167 254.179C379.503 254.479 379.959 254.629 380.535 254.629C381.123 254.629 381.585 254.491 381.921 254.215C382.257 253.927 382.425 253.555 382.425 253.099C382.425 252.727 382.311 252.421 382.083 252.181C381.855 251.941 381.567 251.755 381.219 251.623C380.883 251.479 380.415 251.323 379.815 251.155C378.999 250.915 378.333 250.681 377.817 250.453C377.313 250.213 376.875 249.859 376.503 249.391C376.143 248.911 375.963 248.275 375.963 247.483C375.963 246.739 376.149 246.091 376.521 245.539C376.893 244.987 377.415 244.567 378.087 244.279C378.759 243.979 379.527 243.829 380.391 243.829C381.687 243.829 382.737 244.147 383.541 244.783C384.357 245.407 384.807 246.283 384.891 247.411H382.119C382.095 246.979 381.909 246.625 381.561 246.349C381.225 246.061 380.775 245.917 380.211 245.917C379.719 245.917 379.323 246.043 379.023 246.295C378.735 246.547 378.591 246.913 378.591 247.393C378.591 247.729 378.699 248.011 378.915 248.239C379.143 248.455 379.419 248.635 379.743 248.779C380.079 248.911 380.547 249.067 381.147 249.247C381.963 249.487 382.629 249.727 383.145 249.967C383.661 250.207 384.105 250.567 384.477 251.047C384.849 251.527 385.035 252.157 385.035 252.937C385.035 253.609 384.861 254.233 384.513 254.809C384.165 255.385 383.655 255.847 382.983 256.195C382.311 256.531 381.513 256.699 380.589 256.699ZM401.044 246.601L398.128 256.573H395.41L393.592 249.607L391.774 256.573H389.038L386.104 246.601H388.66L390.424 254.197L392.332 246.601H394.996L396.868 254.179L398.632 246.601H401.044ZM403.685 245.413C403.241 245.413 402.869 245.275 402.569 244.999C402.281 244.711 402.137 244.357 402.137 243.937C402.137 243.517 402.281 243.169 402.569 242.893C402.869 242.605 403.241 242.461 403.685 242.461C404.129 242.461 404.495 242.605 404.783 242.893C405.083 243.169 405.233 243.517 405.233 243.937C405.233 244.357 405.083 244.711 404.783 244.999C404.495 245.275 404.129 245.413 403.685 245.413ZM404.927 246.601V256.573H402.407V246.601H404.927ZM412.943 246.457C414.131 246.457 415.091 246.835 415.823 247.591C416.555 248.335 416.921 249.379 416.921 250.723V256.573H414.401V251.065C414.401 250.273 414.203 249.667 413.807 249.247C413.411 248.815 412.871 248.599 412.187 248.599C411.491 248.599 410.939 248.815 410.531 249.247C410.135 249.667 409.937 250.273 409.937 251.065V256.573H407.417V246.601H409.937V247.843C410.273 247.411 410.699 247.075 411.215 246.835C411.743 246.583 412.319 246.457 412.943 246.457ZM423.223 246.439C423.967 246.439 424.621 246.589 425.185 246.889C425.749 247.177 426.193 247.555 426.517 248.023V246.601H429.055V256.645C429.055 257.569 428.869 258.391 428.497 259.111C428.125 259.843 427.567 260.419 426.823 260.839C426.079 261.271 425.179 261.487 424.123 261.487C422.707 261.487 421.543 261.157 420.631 260.497C419.731 259.837 419.221 258.937 419.101 257.797H421.603C421.735 258.253 422.017 258.613 422.449 258.877C422.893 259.153 423.427 259.291 424.051 259.291C424.783 259.291 425.377 259.069 425.833 258.625C426.289 258.193 426.517 257.533 426.517 256.645V255.097C426.193 255.565 425.743 255.955 425.167 256.267C424.603 256.579 423.955 256.735 423.223 256.735C422.383 256.735 421.615 256.519 420.919 256.087C420.223 255.655 419.671 255.049 419.263 254.269C418.867 253.477 418.669 252.571 418.669 251.551C418.669 250.543 418.867 249.649 419.263 248.869C419.671 248.089 420.217 247.489 420.901 247.069C421.597 246.649 422.371 246.439 423.223 246.439ZM426.517 251.587C426.517 250.975 426.397 250.453 426.157 250.021C425.917 249.577 425.593 249.241 425.185 249.013C424.777 248.773 424.339 248.653 423.871 248.653C423.403 248.653 422.971 248.767 422.575 248.995C422.179 249.223 421.855 249.559 421.603 250.003C421.363 250.435 421.243 250.951 421.243 251.551C421.243 252.151 421.363 252.679 421.603 253.135C421.855 253.579 422.179 253.921 422.575 254.161C422.983 254.401 423.415 254.521 423.871 254.521C424.339 254.521 424.777 254.407 425.185 254.179C425.593 253.939 425.917 253.603 426.157 253.171C426.397 252.727 426.517 252.199 426.517 251.587ZM438.325 254.575H442.465V256.573H435.805V244.009H438.325V254.575ZM448.495 256.735C447.535 256.735 446.671 256.525 445.903 256.105C445.135 255.673 444.529 255.067 444.085 254.287C443.653 253.507 443.437 252.607 443.437 251.587C443.437 250.567 443.659 249.667 444.103 248.887C444.559 248.107 445.177 247.507 445.957 247.087C446.737 246.655 447.607 246.439 448.567 246.439C449.527 246.439 450.397 246.655 451.177 247.087C451.957 247.507 452.569 248.107 453.013 248.887C453.469 249.667 453.697 250.567 453.697 251.587C453.697 252.607 453.463 253.507 452.995 254.287C452.539 255.067 451.915 255.673 451.123 256.105C450.343 256.525 449.467 256.735 448.495 256.735ZM448.495 254.539C448.951 254.539 449.377 254.431 449.773 254.215C450.181 253.987 450.505 253.651 450.745 253.207C450.985 252.763 451.105 252.223 451.105 251.587C451.105 250.639 450.853 249.913 450.349 249.409C449.857 248.893 449.251 248.635 448.531 248.635C447.811 248.635 447.205 248.893 446.713 249.409C446.233 249.913 445.993 250.639 445.993 251.587C445.993 252.535 446.227 253.267 446.695 253.783C447.175 254.287 447.775 254.539 448.495 254.539ZM469.37 246.601L466.454 256.573H463.736L461.918 249.607L460.1 256.573H457.364L454.43 246.601H456.986L458.75 254.197L460.658 246.601H463.322L465.194 254.179L466.958 246.601H469.37Z" fill="#02194A"/>
<path d="M305.548 125.699C304.672 125.699 303.88 125.549 303.172 125.249C302.476 124.949 301.924 124.517 301.516 123.953C301.108 123.389 300.898 122.723 300.886 121.955H303.586C303.622 122.471 303.802 122.879 304.126 123.179C304.462 123.479 304.918 123.629 305.494 123.629C306.082 123.629 306.544 123.491 306.88 123.215C307.216 122.927 307.384 122.555 307.384 122.099C307.384 121.727 307.27 121.421 307.042 121.181C306.814 120.941 306.526 120.755 306.178 120.623C305.842 120.479 305.374 120.323 304.774 120.155C303.958 119.915 303.292 119.681 302.776 119.453C302.272 119.213 301.834 118.859 301.462 118.391C301.102 117.911 300.922 117.275 300.922 116.483C300.922 115.739 301.108 115.091 301.48 114.539C301.852 113.987 302.374 113.567 303.046 113.279C303.718 112.979 304.486 112.829 305.35 112.829C306.646 112.829 307.696 113.147 308.5 113.783C309.316 114.407 309.766 115.283 309.85 116.411H307.078C307.054 115.979 306.868 115.625 306.52 115.349C306.184 115.061 305.734 114.917 305.17 114.917C304.678 114.917 304.282 115.043 303.982 115.295C303.694 115.547 303.55 115.913 303.55 116.393C303.55 116.729 303.658 117.011 303.874 117.239C304.102 117.455 304.378 117.635 304.702 117.779C305.038 117.911 305.506 118.067 306.106 118.247C306.922 118.487 307.588 118.727 308.104 118.967C308.62 119.207 309.064 119.567 309.436 120.047C309.808 120.527 309.994 121.157 309.994 121.937C309.994 122.609 309.82 123.233 309.472 123.809C309.124 124.385 308.614 124.847 307.942 125.195C307.27 125.531 306.472 125.699 305.548 125.699ZM326.003 115.601L323.087 125.573H320.369L318.551 118.607L316.733 125.573H313.997L311.063 115.601H313.619L315.383 123.197L317.291 115.601H319.955L321.827 123.179L323.591 115.601H326.003ZM328.644 114.413C328.2 114.413 327.828 114.275 327.528 113.999C327.24 113.711 327.096 113.357 327.096 112.937C327.096 112.517 327.24 112.169 327.528 111.893C327.828 111.605 328.2 111.461 328.644 111.461C329.088 111.461 329.454 111.605 329.742 111.893C330.042 112.169 330.192 112.517 330.192 112.937C330.192 113.357 330.042 113.711 329.742 113.999C329.454 114.275 329.088 114.413 328.644 114.413ZM329.886 115.601V125.573H327.366V115.601H329.886ZM337.902 115.457C339.09 115.457 340.05 115.835 340.782 116.591C341.514 117.335 341.88 118.379 341.88 119.723V125.573H339.36V120.065C339.36 119.273 339.162 118.667 338.766 118.247C338.37 117.815 337.83 117.599 337.146 117.599C336.45 117.599 335.898 117.815 335.49 118.247C335.094 118.667 334.896 119.273 334.896 120.065V125.573H332.376V115.601H334.896V116.843C335.232 116.411 335.658 116.075 336.174 115.835C336.702 115.583 337.278 115.457 337.902 115.457ZM348.182 115.439C348.926 115.439 349.58 115.589 350.144 115.889C350.708 116.177 351.152 116.555 351.476 117.023V115.601H354.014V125.645C354.014 126.569 353.828 127.391 353.456 128.111C353.084 128.843 352.526 129.419 351.782 129.839C351.038 130.271 350.138 130.487 349.082 130.487C347.666 130.487 346.502 130.157 345.59 129.497C344.69 128.837 344.18 127.937 344.06 126.797H346.562C346.694 127.253 346.976 127.613 347.408 127.877C347.852 128.153 348.386 128.291 349.01 128.291C349.742 128.291 350.336 128.069 350.792 127.625C351.248 127.193 351.476 126.533 351.476 125.645V124.097C351.152 124.565 350.702 124.955 350.126 125.267C349.562 125.579 348.914 125.735 348.182 125.735C347.342 125.735 346.574 125.519 345.878 125.087C345.182 124.655 344.63 124.049 344.222 123.269C343.826 122.477 343.628 121.571 343.628 120.551C343.628 119.543 343.826 118.649 344.222 117.869C344.63 117.089 345.176 116.489 345.86 116.069C346.556 115.649 347.33 115.439 348.182 115.439ZM351.476 120.587C351.476 119.975 351.356 119.453 351.116 119.021C350.876 118.577 350.552 118.241 350.144 118.013C349.736 117.773 349.298 117.653 348.83 117.653C348.362 117.653 347.93 117.767 347.534 117.995C347.138 118.223 346.814 118.559 346.562 119.003C346.322 119.435 346.202 119.951 346.202 120.551C346.202 121.151 346.322 121.679 346.562 122.135C346.814 122.579 347.138 122.921 347.534 123.161C347.942 123.401 348.374 123.521 348.83 123.521C349.298 123.521 349.736 123.407 350.144 123.179C350.552 122.939 350.876 122.603 351.116 122.171C351.356 121.727 351.476 121.199 351.476 120.587ZM366.38 115.457C367.136 115.457 367.808 115.625 368.396 115.961C368.984 116.285 369.44 116.771 369.764 117.419C370.1 118.055 370.268 118.823 370.268 119.723V125.573H367.748V120.065C367.748 119.273 367.55 118.667 367.154 118.247C366.758 117.815 366.218 117.599 365.534 117.599C364.838 117.599 364.286 117.815 363.878 118.247C363.482 118.667 363.284 119.273 363.284 120.065V125.573H360.764V112.253H363.284V116.843C363.608 116.411 364.04 116.075 364.58 115.835C365.12 115.583 365.72 115.457 366.38 115.457ZM373.943 114.413C373.499 114.413 373.127 114.275 372.827 113.999C372.539 113.711 372.395 113.357 372.395 112.937C372.395 112.517 372.539 112.169 372.827 111.893C373.127 111.605 373.499 111.461 373.943 111.461C374.387 111.461 374.753 111.605 375.041 111.893C375.341 112.169 375.491 112.517 375.491 112.937C375.491 113.357 375.341 113.711 375.041 113.999C374.753 114.275 374.387 114.413 373.943 114.413ZM375.185 115.601V125.573H372.665V115.601H375.185ZM381.581 115.439C382.325 115.439 382.979 115.589 383.543 115.889C384.107 116.177 384.551 116.555 384.875 117.023V115.601H387.413V125.645C387.413 126.569 387.227 127.391 386.855 128.111C386.483 128.843 385.925 129.419 385.181 129.839C384.437 130.271 383.537 130.487 382.481 130.487C381.065 130.487 379.901 130.157 378.989 129.497C378.089 128.837 377.579 127.937 377.459 126.797H379.961C380.093 127.253 380.375 127.613 380.807 127.877C381.251 128.153 381.785 128.291 382.409 128.291C383.141 128.291 383.735 128.069 384.191 127.625C384.647 127.193 384.875 126.533 384.875 125.645V124.097C384.551 124.565 384.101 124.955 383.525 125.267C382.961 125.579 382.313 125.735 381.581 125.735C380.741 125.735 379.973 125.519 379.277 125.087C378.581 124.655 378.029 124.049 377.621 123.269C377.225 122.477 377.027 121.571 377.027 120.551C377.027 119.543 377.225 118.649 377.621 117.869C378.029 117.089 378.575 116.489 379.259 116.069C379.955 115.649 380.729 115.439 381.581 115.439ZM384.875 120.587C384.875 119.975 384.755 119.453 384.515 119.021C384.275 118.577 383.951 118.241 383.543 118.013C383.135 117.773 382.697 117.653 382.229 117.653C381.761 117.653 381.329 117.767 380.933 117.995C380.537 118.223 380.213 118.559 379.961 119.003C379.721 119.435 379.601 119.951 379.601 120.551C379.601 121.151 379.721 121.679 379.961 122.135C380.213 122.579 380.537 122.921 380.933 123.161C381.341 123.401 381.773 123.521 382.229 123.521C382.697 123.521 383.135 123.407 383.543 123.179C383.951 122.939 384.275 122.603 384.515 122.171C384.755 121.727 384.875 121.199 384.875 120.587ZM395.49 115.457C396.246 115.457 396.918 115.625 397.506 115.961C398.094 116.285 398.55 116.771 398.874 117.419C399.21 118.055 399.378 118.823 399.378 119.723V125.573H396.858V120.065C396.858 119.273 396.66 118.667 396.264 118.247C395.868 117.815 395.328 117.599 394.644 117.599C393.948 117.599 393.396 117.815 392.988 118.247C392.592 118.667 392.394 119.273 392.394 120.065V125.573H389.874V112.253H392.394V116.843C392.718 116.411 393.15 116.075 393.69 115.835C394.23 115.583 394.83 115.457 395.49 115.457Z" fill="#02194A"/>
<path d="M729.548 117.699C728.672 117.699 727.88 117.549 727.172 117.249C726.476 116.949 725.924 116.517 725.516 115.953C725.108 115.389 724.898 114.723 724.886 113.955H727.586C727.622 114.471 727.802 114.879 728.126 115.179C728.462 115.479 728.918 115.629 729.494 115.629C730.082 115.629 730.544 115.491 730.88 115.215C731.216 114.927 731.384 114.555 731.384 114.099C731.384 113.727 731.27 113.421 731.042 113.181C730.814 112.941 730.526 112.755 730.178 112.623C729.842 112.479 729.374 112.323 728.774 112.155C727.958 111.915 727.292 111.681 726.776 111.453C726.272 111.213 725.834 110.859 725.462 110.391C725.102 109.911 724.922 109.275 724.922 108.483C724.922 107.739 725.108 107.091 725.48 106.539C725.852 105.987 726.374 105.567 727.046 105.279C727.718 104.979 728.486 104.829 729.35 104.829C730.646 104.829 731.696 105.147 732.5 105.783C733.316 106.407 733.766 107.283 733.85 108.411H731.078C731.054 107.979 730.868 107.625 730.52 107.349C730.184 107.061 729.734 106.917 729.17 106.917C728.678 106.917 728.282 107.043 727.982 107.295C727.694 107.547 727.55 107.913 727.55 108.393C727.55 108.729 727.658 109.011 727.874 109.239C728.102 109.455 728.378 109.635 728.702 109.779C729.038 109.911 729.506 110.067 730.106 110.247C730.922 110.487 731.588 110.727 732.104 110.967C732.62 111.207 733.064 111.567 733.436 112.047C733.808 112.527 733.994 113.157 733.994 113.937C733.994 114.609 733.82 115.233 733.472 115.809C733.124 116.385 732.614 116.847 731.942 117.195C731.27 117.531 730.472 117.699 729.548 117.699ZM750.003 107.601L747.087 117.573H744.369L742.551 110.607L740.733 117.573H737.997L735.063 107.601H737.619L739.383 115.197L741.291 107.601H743.955L745.827 115.179L747.591 107.601H750.003ZM752.644 106.413C752.2 106.413 751.828 106.275 751.528 105.999C751.24 105.711 751.096 105.357 751.096 104.937C751.096 104.517 751.24 104.169 751.528 103.893C751.828 103.605 752.2 103.461 752.644 103.461C753.088 103.461 753.454 103.605 753.742 103.893C754.042 104.169 754.192 104.517 754.192 104.937C754.192 105.357 754.042 105.711 753.742 105.999C753.454 106.275 753.088 106.413 752.644 106.413ZM753.886 107.601V117.573H751.366V107.601H753.886ZM761.902 107.457C763.09 107.457 764.05 107.835 764.782 108.591C765.514 109.335 765.88 110.379 765.88 111.723V117.573H763.36V112.065C763.36 111.273 763.162 110.667 762.766 110.247C762.37 109.815 761.83 109.599 761.146 109.599C760.45 109.599 759.898 109.815 759.49 110.247C759.094 110.667 758.896 111.273 758.896 112.065V117.573H756.376V107.601H758.896V108.843C759.232 108.411 759.658 108.075 760.174 107.835C760.702 107.583 761.278 107.457 761.902 107.457ZM772.182 107.439C772.926 107.439 773.58 107.589 774.144 107.889C774.708 108.177 775.152 108.555 775.476 109.023V107.601H778.014V117.645C778.014 118.569 777.828 119.391 777.456 120.111C777.084 120.843 776.526 121.419 775.782 121.839C775.038 122.271 774.138 122.487 773.082 122.487C771.666 122.487 770.502 122.157 769.59 121.497C768.69 120.837 768.18 119.937 768.06 118.797H770.562C770.694 119.253 770.976 119.613 771.408 119.877C771.852 120.153 772.386 120.291 773.01 120.291C773.742 120.291 774.336 120.069 774.792 119.625C775.248 119.193 775.476 118.533 775.476 117.645V116.097C775.152 116.565 774.702 116.955 774.126 117.267C773.562 117.579 772.914 117.735 772.182 117.735C771.342 117.735 770.574 117.519 769.878 117.087C769.182 116.655 768.63 116.049 768.222 115.269C767.826 114.477 767.628 113.571 767.628 112.551C767.628 111.543 767.826 110.649 768.222 109.869C768.63 109.089 769.176 108.489 769.86 108.069C770.556 107.649 771.33 107.439 772.182 107.439ZM775.476 112.587C775.476 111.975 775.356 111.453 775.116 111.021C774.876 110.577 774.552 110.241 774.144 110.013C773.736 109.773 773.298 109.653 772.83 109.653C772.362 109.653 771.93 109.767 771.534 109.995C771.138 110.223 770.814 110.559 770.562 111.003C770.322 111.435 770.202 111.951 770.202 112.551C770.202 113.151 770.322 113.679 770.562 114.135C770.814 114.579 771.138 114.921 771.534 115.161C771.942 115.401 772.374 115.521 772.83 115.521C773.298 115.521 773.736 115.407 774.144 115.179C774.552 114.939 774.876 114.603 775.116 114.171C775.356 113.727 775.476 113.199 775.476 112.587ZM790.38 107.457C791.136 107.457 791.808 107.625 792.396 107.961C792.984 108.285 793.44 108.771 793.764 109.419C794.1 110.055 794.268 110.823 794.268 111.723V117.573H791.748V112.065C791.748 111.273 791.55 110.667 791.154 110.247C790.758 109.815 790.218 109.599 789.534 109.599C788.838 109.599 788.286 109.815 787.878 110.247C787.482 110.667 787.284 111.273 787.284 112.065V117.573H784.764V104.253H787.284V108.843C787.608 108.411 788.04 108.075 788.58 107.835C789.12 107.583 789.72 107.457 790.38 107.457ZM797.943 106.413C797.499 106.413 797.127 106.275 796.827 105.999C796.539 105.711 796.395 105.357 796.395 104.937C796.395 104.517 796.539 104.169 796.827 103.893C797.127 103.605 797.499 103.461 797.943 103.461C798.387 103.461 798.753 103.605 799.041 103.893C799.341 104.169 799.491 104.517 799.491 104.937C799.491 105.357 799.341 105.711 799.041 105.999C798.753 106.275 798.387 106.413 797.943 106.413ZM799.185 107.601V117.573H796.665V107.601H799.185ZM805.581 107.439C806.325 107.439 806.979 107.589 807.543 107.889C808.107 108.177 808.551 108.555 808.875 109.023V107.601H811.413V117.645C811.413 118.569 811.227 119.391 810.855 120.111C810.483 120.843 809.925 121.419 809.181 121.839C808.437 122.271 807.537 122.487 806.481 122.487C805.065 122.487 803.901 122.157 802.989 121.497C802.089 120.837 801.579 119.937 801.459 118.797H803.961C804.093 119.253 804.375 119.613 804.807 119.877C805.251 120.153 805.785 120.291 806.409 120.291C807.141 120.291 807.735 120.069 808.191 119.625C808.647 119.193 808.875 118.533 808.875 117.645V116.097C808.551 116.565 808.101 116.955 807.525 117.267C806.961 117.579 806.313 117.735 805.581 117.735C804.741 117.735 803.973 117.519 803.277 117.087C802.581 116.655 802.029 116.049 801.621 115.269C801.225 114.477 801.027 113.571 801.027 112.551C801.027 111.543 801.225 110.649 801.621 109.869C802.029 109.089 802.575 108.489 803.259 108.069C803.955 107.649 804.729 107.439 805.581 107.439ZM808.875 112.587C808.875 111.975 808.755 111.453 808.515 111.021C808.275 110.577 807.951 110.241 807.543 110.013C807.135 109.773 806.697 109.653 806.229 109.653C805.761 109.653 805.329 109.767 804.933 109.995C804.537 110.223 804.213 110.559 803.961 111.003C803.721 111.435 803.601 111.951 803.601 112.551C803.601 113.151 803.721 113.679 803.961 114.135C804.213 114.579 804.537 114.921 804.933 115.161C805.341 115.401 805.773 115.521 806.229 115.521C806.697 115.521 807.135 115.407 807.543 115.179C807.951 114.939 808.275 114.603 808.515 114.171C808.755 113.727 808.875 113.199 808.875 112.587ZM819.49 107.457C820.246 107.457 820.918 107.625 821.506 107.961C822.094 108.285 822.55 108.771 822.874 109.419C823.21 110.055 823.378 110.823 823.378 111.723V117.573H820.858V112.065C820.858 111.273 820.66 110.667 820.264 110.247C819.868 109.815 819.328 109.599 818.644 109.599C817.948 109.599 817.396 109.815 816.988 110.247C816.592 110.667 816.394 111.273 816.394 112.065V117.573H813.874V104.253H816.394V108.843C816.718 108.411 817.15 108.075 817.69 107.835C818.23 107.583 818.83 107.457 819.49 107.457Z" fill="#02194A"/>
<path d="M877.548 185.699C876.672 185.699 875.88 185.549 875.172 185.249C874.476 184.949 873.924 184.517 873.516 183.953C873.108 183.389 872.898 182.723 872.886 181.955H875.586C875.622 182.471 875.802 182.879 876.126 183.179C876.462 183.479 876.918 183.629 877.494 183.629C878.082 183.629 878.544 183.491 878.88 183.215C879.216 182.927 879.384 182.555 879.384 182.099C879.384 181.727 879.27 181.421 879.042 181.181C878.814 180.941 878.526 180.755 878.178 180.623C877.842 180.479 877.374 180.323 876.774 180.155C875.958 179.915 875.292 179.681 874.776 179.453C874.272 179.213 873.834 178.859 873.462 178.391C873.102 177.911 872.922 177.275 872.922 176.483C872.922 175.739 873.108 175.091 873.48 174.539C873.852 173.987 874.374 173.567 875.046 173.279C875.718 172.979 876.486 172.829 877.35 172.829C878.646 172.829 879.696 173.147 880.5 173.783C881.316 174.407 881.766 175.283 881.85 176.411H879.078C879.054 175.979 878.868 175.625 878.52 175.349C878.184 175.061 877.734 174.917 877.17 174.917C876.678 174.917 876.282 175.043 875.982 175.295C875.694 175.547 875.55 175.913 875.55 176.393C875.55 176.729 875.658 177.011 875.874 177.239C876.102 177.455 876.378 177.635 876.702 177.779C877.038 177.911 877.506 178.067 878.106 178.247C878.922 178.487 879.588 178.727 880.104 178.967C880.62 179.207 881.064 179.567 881.436 180.047C881.808 180.527 881.994 181.157 881.994 181.937C881.994 182.609 881.82 183.233 881.472 183.809C881.124 184.385 880.614 184.847 879.942 185.195C879.27 185.531 878.472 185.699 877.548 185.699ZM898.003 175.601L895.087 185.573H892.369L890.551 178.607L888.733 185.573H885.997L883.063 175.601H885.619L887.383 183.197L889.291 175.601H891.955L893.827 183.179L895.591 175.601H898.003ZM900.644 174.413C900.2 174.413 899.828 174.275 899.528 173.999C899.24 173.711 899.096 173.357 899.096 172.937C899.096 172.517 899.24 172.169 899.528 171.893C899.828 171.605 900.2 171.461 900.644 171.461C901.088 171.461 901.454 171.605 901.742 171.893C902.042 172.169 902.192 172.517 902.192 172.937C902.192 173.357 902.042 173.711 901.742 173.999C901.454 174.275 901.088 174.413 900.644 174.413ZM901.886 175.601V185.573H899.366V175.601H901.886ZM909.902 175.457C911.09 175.457 912.05 175.835 912.782 176.591C913.514 177.335 913.88 178.379 913.88 179.723V185.573H911.36V180.065C911.36 179.273 911.162 178.667 910.766 178.247C910.37 177.815 909.83 177.599 909.146 177.599C908.45 177.599 907.898 177.815 907.49 178.247C907.094 178.667 906.896 179.273 906.896 180.065V185.573H904.376V175.601H906.896V176.843C907.232 176.411 907.658 176.075 908.174 175.835C908.702 175.583 909.278 175.457 909.902 175.457ZM920.182 175.439C920.926 175.439 921.58 175.589 922.144 175.889C922.708 176.177 923.152 176.555 923.476 177.023V175.601H926.014V185.645C926.014 186.569 925.828 187.391 925.456 188.111C925.084 188.843 924.526 189.419 923.782 189.839C923.038 190.271 922.138 190.487 921.082 190.487C919.666 190.487 918.502 190.157 917.59 189.497C916.69 188.837 916.18 187.937 916.06 186.797H918.562C918.694 187.253 918.976 187.613 919.408 187.877C919.852 188.153 920.386 188.291 921.01 188.291C921.742 188.291 922.336 188.069 922.792 187.625C923.248 187.193 923.476 186.533 923.476 185.645V184.097C923.152 184.565 922.702 184.955 922.126 185.267C921.562 185.579 920.914 185.735 920.182 185.735C919.342 185.735 918.574 185.519 917.878 185.087C917.182 184.655 916.63 184.049 916.222 183.269C915.826 182.477 915.628 181.571 915.628 180.551C915.628 179.543 915.826 178.649 916.222 177.869C916.63 177.089 917.176 176.489 917.86 176.069C918.556 175.649 919.33 175.439 920.182 175.439ZM923.476 180.587C923.476 179.975 923.356 179.453 923.116 179.021C922.876 178.577 922.552 178.241 922.144 178.013C921.736 177.773 921.298 177.653 920.83 177.653C920.362 177.653 919.93 177.767 919.534 177.995C919.138 178.223 918.814 178.559 918.562 179.003C918.322 179.435 918.202 179.951 918.202 180.551C918.202 181.151 918.322 181.679 918.562 182.135C918.814 182.579 919.138 182.921 919.534 183.161C919.942 183.401 920.374 183.521 920.83 183.521C921.298 183.521 921.736 183.407 922.144 183.179C922.552 182.939 922.876 182.603 923.116 182.171C923.356 181.727 923.476 181.199 923.476 180.587ZM938.38 175.457C939.136 175.457 939.808 175.625 940.396 175.961C940.984 176.285 941.44 176.771 941.764 177.419C942.1 178.055 942.268 178.823 942.268 179.723V185.573H939.748V180.065C939.748 179.273 939.55 178.667 939.154 178.247C938.758 177.815 938.218 177.599 937.534 177.599C936.838 177.599 936.286 177.815 935.878 178.247C935.482 178.667 935.284 179.273 935.284 180.065V185.573H932.764V172.253H935.284V176.843C935.608 176.411 936.04 176.075 936.58 175.835C937.12 175.583 937.72 175.457 938.38 175.457ZM945.943 174.413C945.499 174.413 945.127 174.275 944.827 173.999C944.539 173.711 944.395 173.357 944.395 172.937C944.395 172.517 944.539 172.169 944.827 171.893C945.127 171.605 945.499 171.461 945.943 171.461C946.387 171.461 946.753 171.605 947.041 171.893C947.341 172.169 947.491 172.517 947.491 172.937C947.491 173.357 947.341 173.711 947.041 173.999C946.753 174.275 946.387 174.413 945.943 174.413ZM947.185 175.601V185.573H944.665V175.601H947.185ZM953.581 175.439C954.325 175.439 954.979 175.589 955.543 175.889C956.107 176.177 956.551 176.555 956.875 177.023V175.601H959.413V185.645C959.413 186.569 959.227 187.391 958.855 188.111C958.483 188.843 957.925 189.419 957.181 189.839C956.437 190.271 955.537 190.487 954.481 190.487C953.065 190.487 951.901 190.157 950.989 189.497C950.089 188.837 949.579 187.937 949.459 186.797H951.961C952.093 187.253 952.375 187.613 952.807 187.877C953.251 188.153 953.785 188.291 954.409 188.291C955.141 188.291 955.735 188.069 956.191 187.625C956.647 187.193 956.875 186.533 956.875 185.645V184.097C956.551 184.565 956.101 184.955 955.525 185.267C954.961 185.579 954.313 185.735 953.581 185.735C952.741 185.735 951.973 185.519 951.277 185.087C950.581 184.655 950.029 184.049 949.621 183.269C949.225 182.477 949.027 181.571 949.027 180.551C949.027 179.543 949.225 178.649 949.621 177.869C950.029 177.089 950.575 176.489 951.259 176.069C951.955 175.649 952.729 175.439 953.581 175.439ZM956.875 180.587C956.875 179.975 956.755 179.453 956.515 179.021C956.275 178.577 955.951 178.241 955.543 178.013C955.135 177.773 954.697 177.653 954.229 177.653C953.761 177.653 953.329 177.767 952.933 177.995C952.537 178.223 952.213 178.559 951.961 179.003C951.721 179.435 951.601 179.951 951.601 180.551C951.601 181.151 951.721 181.679 951.961 182.135C952.213 182.579 952.537 182.921 952.933 183.161C953.341 183.401 953.773 183.521 954.229 183.521C954.697 183.521 955.135 183.407 955.543 183.179C955.951 182.939 956.275 182.603 956.515 182.171C956.755 181.727 956.875 181.199 956.875 180.587ZM967.49 175.457C968.246 175.457 968.918 175.625 969.506 175.961C970.094 176.285 970.55 176.771 970.874 177.419C971.21 178.055 971.378 178.823 971.378 179.723V185.573H968.858V180.065C968.858 179.273 968.66 178.667 968.264 178.247C967.868 177.815 967.328 177.599 966.644 177.599C965.948 177.599 965.396 177.815 964.988 178.247C964.592 178.667 964.394 179.273 964.394 180.065V185.573H961.874V172.253H964.394V176.843C964.718 176.411 965.15 176.075 965.69 175.835C966.23 175.583 966.83 175.457 967.49 175.457Z" fill="#02194A"/>
<path d="M830.589 294.699C829.713 294.699 828.921 294.549 828.213 294.249C827.517 293.949 826.965 293.517 826.557 292.953C826.149 292.389 825.939 291.723 825.927 290.955H828.627C828.663 291.471 828.843 291.879 829.167 292.179C829.503 292.479 829.959 292.629 830.535 292.629C831.123 292.629 831.585 292.491 831.921 292.215C832.257 291.927 832.425 291.555 832.425 291.099C832.425 290.727 832.311 290.421 832.083 290.181C831.855 289.941 831.567 289.755 831.219 289.623C830.883 289.479 830.415 289.323 829.815 289.155C828.999 288.915 828.333 288.681 827.817 288.453C827.313 288.213 826.875 287.859 826.503 287.391C826.143 286.911 825.963 286.275 825.963 285.483C825.963 284.739 826.149 284.091 826.521 283.539C826.893 282.987 827.415 282.567 828.087 282.279C828.759 281.979 829.527 281.829 830.391 281.829C831.687 281.829 832.737 282.147 833.541 282.783C834.357 283.407 834.807 284.283 834.891 285.411H832.119C832.095 284.979 831.909 284.625 831.561 284.349C831.225 284.061 830.775 283.917 830.211 283.917C829.719 283.917 829.323 284.043 829.023 284.295C828.735 284.547 828.591 284.913 828.591 285.393C828.591 285.729 828.699 286.011 828.915 286.239C829.143 286.455 829.419 286.635 829.743 286.779C830.079 286.911 830.547 287.067 831.147 287.247C831.963 287.487 832.629 287.727 833.145 287.967C833.661 288.207 834.105 288.567 834.477 289.047C834.849 289.527 835.035 290.157 835.035 290.937C835.035 291.609 834.861 292.233 834.513 292.809C834.165 293.385 833.655 293.847 832.983 294.195C832.311 294.531 831.513 294.699 830.589 294.699ZM851.044 284.601L848.128 294.573H845.41L843.592 287.607L841.774 294.573H839.038L836.104 284.601H838.66L840.424 292.197L842.332 284.601H844.996L846.868 292.179L848.632 284.601H851.044ZM853.685 283.413C853.241 283.413 852.869 283.275 852.569 282.999C852.281 282.711 852.137 282.357 852.137 281.937C852.137 281.517 852.281 281.169 852.569 280.893C852.869 280.605 853.241 280.461 853.685 280.461C854.129 280.461 854.495 280.605 854.783 280.893C855.083 281.169 855.233 281.517 855.233 281.937C855.233 282.357 855.083 282.711 854.783 282.999C854.495 283.275 854.129 283.413 853.685 283.413ZM854.927 284.601V294.573H852.407V284.601H854.927ZM862.943 284.457C864.131 284.457 865.091 284.835 865.823 285.591C866.555 286.335 866.921 287.379 866.921 288.723V294.573H864.401V289.065C864.401 288.273 864.203 287.667 863.807 287.247C863.411 286.815 862.871 286.599 862.187 286.599C861.491 286.599 860.939 286.815 860.531 287.247C860.135 287.667 859.937 288.273 859.937 289.065V294.573H857.417V284.601H859.937V285.843C860.273 285.411 860.699 285.075 861.215 284.835C861.743 284.583 862.319 284.457 862.943 284.457ZM873.223 284.439C873.967 284.439 874.621 284.589 875.185 284.889C875.749 285.177 876.193 285.555 876.517 286.023V284.601H879.055V294.645C879.055 295.569 878.869 296.391 878.497 297.111C878.125 297.843 877.567 298.419 876.823 298.839C876.079 299.271 875.179 299.487 874.123 299.487C872.707 299.487 871.543 299.157 870.631 298.497C869.731 297.837 869.221 296.937 869.101 295.797H871.603C871.735 296.253 872.017 296.613 872.449 296.877C872.893 297.153 873.427 297.291 874.051 297.291C874.783 297.291 875.377 297.069 875.833 296.625C876.289 296.193 876.517 295.533 876.517 294.645V293.097C876.193 293.565 875.743 293.955 875.167 294.267C874.603 294.579 873.955 294.735 873.223 294.735C872.383 294.735 871.615 294.519 870.919 294.087C870.223 293.655 869.671 293.049 869.263 292.269C868.867 291.477 868.669 290.571 868.669 289.551C868.669 288.543 868.867 287.649 869.263 286.869C869.671 286.089 870.217 285.489 870.901 285.069C871.597 284.649 872.371 284.439 873.223 284.439ZM876.517 289.587C876.517 288.975 876.397 288.453 876.157 288.021C875.917 287.577 875.593 287.241 875.185 287.013C874.777 286.773 874.339 286.653 873.871 286.653C873.403 286.653 872.971 286.767 872.575 286.995C872.179 287.223 871.855 287.559 871.603 288.003C871.363 288.435 871.243 288.951 871.243 289.551C871.243 290.151 871.363 290.679 871.603 291.135C871.855 291.579 872.179 291.921 872.575 292.161C872.983 292.401 873.415 292.521 873.871 292.521C874.339 292.521 874.777 292.407 875.185 292.179C875.593 291.939 875.917 291.603 876.157 291.171C876.397 290.727 876.517 290.199 876.517 289.587ZM888.325 292.575H892.465V294.573H885.805V282.009H888.325V292.575ZM898.495 294.735C897.535 294.735 896.671 294.525 895.903 294.105C895.135 293.673 894.529 293.067 894.085 292.287C893.653 291.507 893.437 290.607 893.437 289.587C893.437 288.567 893.659 287.667 894.103 286.887C894.559 286.107 895.177 285.507 895.957 285.087C896.737 284.655 897.607 284.439 898.567 284.439C899.527 284.439 900.397 284.655 901.177 285.087C901.957 285.507 902.569 286.107 903.013 286.887C903.469 287.667 903.697 288.567 903.697 289.587C903.697 290.607 903.463 291.507 902.995 292.287C902.539 293.067 901.915 293.673 901.123 294.105C900.343 294.525 899.467 294.735 898.495 294.735ZM898.495 292.539C898.951 292.539 899.377 292.431 899.773 292.215C900.181 291.987 900.505 291.651 900.745 291.207C900.985 290.763 901.105 290.223 901.105 289.587C901.105 288.639 900.853 287.913 900.349 287.409C899.857 286.893 899.251 286.635 898.531 286.635C897.811 286.635 897.205 286.893 896.713 287.409C896.233 287.913 895.993 288.639 895.993 289.587C895.993 290.535 896.227 291.267 896.695 291.783C897.175 292.287 897.775 292.539 898.495 292.539ZM919.37 284.601L916.454 294.573H913.736L911.918 287.607L910.1 294.573H907.364L904.43 284.601H906.986L908.75 292.197L910.658 284.601H913.322L915.194 292.179L916.958 284.601H919.37Z" fill="#02194A"/>
<path d="M680.589 225.699C679.713 225.699 678.921 225.549 678.213 225.249C677.517 224.949 676.965 224.517 676.557 223.953C676.149 223.389 675.939 222.723 675.927 221.955H678.627C678.663 222.471 678.843 222.879 679.167 223.179C679.503 223.479 679.959 223.629 680.535 223.629C681.123 223.629 681.585 223.491 681.921 223.215C682.257 222.927 682.425 222.555 682.425 222.099C682.425 221.727 682.311 221.421 682.083 221.181C681.855 220.941 681.567 220.755 681.219 220.623C680.883 220.479 680.415 220.323 679.815 220.155C678.999 219.915 678.333 219.681 677.817 219.453C677.313 219.213 676.875 218.859 676.503 218.391C676.143 217.911 675.963 217.275 675.963 216.483C675.963 215.739 676.149 215.091 676.521 214.539C676.893 213.987 677.415 213.567 678.087 213.279C678.759 212.979 679.527 212.829 680.391 212.829C681.687 212.829 682.737 213.147 683.541 213.783C684.357 214.407 684.807 215.283 684.891 216.411H682.119C682.095 215.979 681.909 215.625 681.561 215.349C681.225 215.061 680.775 214.917 680.211 214.917C679.719 214.917 679.323 215.043 679.023 215.295C678.735 215.547 678.591 215.913 678.591 216.393C678.591 216.729 678.699 217.011 678.915 217.239C679.143 217.455 679.419 217.635 679.743 217.779C680.079 217.911 680.547 218.067 681.147 218.247C681.963 218.487 682.629 218.727 683.145 218.967C683.661 219.207 684.105 219.567 684.477 220.047C684.849 220.527 685.035 221.157 685.035 221.937C685.035 222.609 684.861 223.233 684.513 223.809C684.165 224.385 683.655 224.847 682.983 225.195C682.311 225.531 681.513 225.699 680.589 225.699ZM701.044 215.601L698.128 225.573H695.41L693.592 218.607L691.774 225.573H689.038L686.104 215.601H688.66L690.424 223.197L692.332 215.601H694.996L696.868 223.179L698.632 215.601H701.044ZM703.685 214.413C703.241 214.413 702.869 214.275 702.569 213.999C702.281 213.711 702.137 213.357 702.137 212.937C702.137 212.517 702.281 212.169 702.569 211.893C702.869 211.605 703.241 211.461 703.685 211.461C704.129 211.461 704.495 211.605 704.783 211.893C705.083 212.169 705.233 212.517 705.233 212.937C705.233 213.357 705.083 213.711 704.783 213.999C704.495 214.275 704.129 214.413 703.685 214.413ZM704.927 215.601V225.573H702.407V215.601H704.927ZM712.943 215.457C714.131 215.457 715.091 215.835 715.823 216.591C716.555 217.335 716.921 218.379 716.921 219.723V225.573H714.401V220.065C714.401 219.273 714.203 218.667 713.807 218.247C713.411 217.815 712.871 217.599 712.187 217.599C711.491 217.599 710.939 217.815 710.531 218.247C710.135 218.667 709.937 219.273 709.937 220.065V225.573H707.417V215.601H709.937V216.843C710.273 216.411 710.699 216.075 711.215 215.835C711.743 215.583 712.319 215.457 712.943 215.457ZM723.223 215.439C723.967 215.439 724.621 215.589 725.185 215.889C725.749 216.177 726.193 216.555 726.517 217.023V215.601H729.055V225.645C729.055 226.569 728.869 227.391 728.497 228.111C728.125 228.843 727.567 229.419 726.823 229.839C726.079 230.271 725.179 230.487 724.123 230.487C722.707 230.487 721.543 230.157 720.631 229.497C719.731 228.837 719.221 227.937 719.101 226.797H721.603C721.735 227.253 722.017 227.613 722.449 227.877C722.893 228.153 723.427 228.291 724.051 228.291C724.783 228.291 725.377 228.069 725.833 227.625C726.289 227.193 726.517 226.533 726.517 225.645V224.097C726.193 224.565 725.743 224.955 725.167 225.267C724.603 225.579 723.955 225.735 723.223 225.735C722.383 225.735 721.615 225.519 720.919 225.087C720.223 224.655 719.671 224.049 719.263 223.269C718.867 222.477 718.669 221.571 718.669 220.551C718.669 219.543 718.867 218.649 719.263 217.869C719.671 217.089 720.217 216.489 720.901 216.069C721.597 215.649 722.371 215.439 723.223 215.439ZM726.517 220.587C726.517 219.975 726.397 219.453 726.157 219.021C725.917 218.577 725.593 218.241 725.185 218.013C724.777 217.773 724.339 217.653 723.871 217.653C723.403 217.653 722.971 217.767 722.575 217.995C722.179 218.223 721.855 218.559 721.603 219.003C721.363 219.435 721.243 219.951 721.243 220.551C721.243 221.151 721.363 221.679 721.603 222.135C721.855 222.579 722.179 222.921 722.575 223.161C722.983 223.401 723.415 223.521 723.871 223.521C724.339 223.521 724.777 223.407 725.185 223.179C725.593 222.939 725.917 222.603 726.157 222.171C726.397 221.727 726.517 221.199 726.517 220.587ZM738.325 223.575H742.465V225.573H735.805V213.009H738.325V223.575ZM748.495 225.735C747.535 225.735 746.671 225.525 745.903 225.105C745.135 224.673 744.529 224.067 744.085 223.287C743.653 222.507 743.437 221.607 743.437 220.587C743.437 219.567 743.659 218.667 744.103 217.887C744.559 217.107 745.177 216.507 745.957 216.087C746.737 215.655 747.607 215.439 748.567 215.439C749.527 215.439 750.397 215.655 751.177 216.087C751.957 216.507 752.569 217.107 753.013 217.887C753.469 218.667 753.697 219.567 753.697 220.587C753.697 221.607 753.463 222.507 752.995 223.287C752.539 224.067 751.915 224.673 751.123 225.105C750.343 225.525 749.467 225.735 748.495 225.735ZM748.495 223.539C748.951 223.539 749.377 223.431 749.773 223.215C750.181 222.987 750.505 222.651 750.745 222.207C750.985 221.763 751.105 221.223 751.105 220.587C751.105 219.639 750.853 218.913 750.349 218.409C749.857 217.893 749.251 217.635 748.531 217.635C747.811 217.635 747.205 217.893 746.713 218.409C746.233 218.913 745.993 219.639 745.993 220.587C745.993 221.535 746.227 222.267 746.695 222.783C747.175 223.287 747.775 223.539 748.495 223.539ZM769.37 215.601L766.454 225.573H763.736L761.918 218.607L760.1 225.573H757.364L754.43 215.601H756.986L758.75 223.197L760.658 215.601H763.322L765.194 223.179L766.958 215.601H769.37Z" fill="#02194A"/>
</svg>
